<svg width="137" height="36" viewBox="0 0 137 36" fill="none" xmlns="http://www.w3.org/2000/svg">
<g clip-path="url(#clip0_5115_851)">
<path opacity="0.99" fill-rule="evenodd" clip-rule="evenodd" d="M-0.0692139 2.97692C7.68463 2.97692 15.4385 2.97692 23.1923 2.97692C23.48 7.13937 21.6338 9.79322 17.6539 10.9385C11.7463 11.0077 5.83866 11.0308 -0.0692139 11.0077C-0.0692139 8.33077 -0.0692139 5.65384 -0.0692139 2.97692Z" fill="black"/>
<path opacity="0.973" fill-rule="evenodd" clip-rule="evenodd" d="M98.6538 3.39231C100.038 3.39231 101.423 3.39231 102.808 3.39231C102.785 6.25422 102.808 9.11575 102.877 11.9769C104.126 10.7642 105.626 10.095 107.377 9.96923C109.689 9.68166 111.766 10.2355 113.608 11.6308C114.7 12.7776 115.37 14.1391 115.615 15.7154C115.685 19.6381 115.708 23.5613 115.685 27.4846C114.3 27.4846 112.915 27.4846 111.531 27.4846C111.595 23.7391 111.526 20.0006 111.323 16.2692C110.691 14.4865 109.421 13.6096 107.515 13.6385C104.917 13.6791 103.371 14.9714 102.877 17.5154C102.808 20.8382 102.785 24.1613 102.808 27.4846C101.423 27.4846 100.038 27.4846 98.6538 27.4846C98.6538 19.4538 98.6538 11.4231 98.6538 3.39231Z" fill="black"/>
<path opacity="0.954" fill-rule="evenodd" clip-rule="evenodd" d="M31.9154 4.77692C37.5 4.77692 43.0847 4.77692 48.6693 4.77692C48.6693 6.02308 48.6693 7.26923 48.6693 8.51539C44.5615 8.51539 40.4539 8.51539 36.3462 8.51539C36.3462 10.7308 36.3462 12.9462 36.3462 15.1615C39.9923 15.1615 43.6385 15.1615 47.2846 15.1615C47.2846 16.4077 47.2846 17.6538 47.2846 18.9C43.6385 18.9 39.9923 18.9 36.3462 18.9C36.3462 21.7616 36.3462 24.623 36.3462 27.4846C34.8692 27.4846 33.3924 27.4846 31.9154 27.4846C31.9154 19.9153 31.9154 12.3462 31.9154 4.77692Z" fill="black"/>
<path opacity="0.969" fill-rule="evenodd" clip-rule="evenodd" d="M55.5923 9.9C58.2156 9.60977 60.6156 10.1867 62.7923 11.6308C63.9643 12.7894 64.6334 14.1972 64.8 15.8538C64.8692 19.7305 64.8924 23.6074 64.8692 27.4846C63.577 27.4846 62.2846 27.4846 60.9923 27.4846C61.0153 26.8829 60.9922 26.2829 60.9231 25.6846C59.9184 26.8448 58.6491 27.514 57.1154 27.6923C55.0622 28.0192 53.1237 27.6962 51.3 26.7231C48.9757 24.8784 48.4449 22.5937 49.7077 19.8692C50.8319 18.3952 52.3318 17.5874 54.2077 17.4462C56.3764 17.3769 58.5457 17.3538 60.7154 17.3769C60.817 15.5701 60.0325 14.3471 58.3616 13.7077C55.7844 13.1385 53.4305 13.6231 51.3 15.1615C50.5418 14.1988 50.0109 13.1373 49.7077 11.9769C51.5116 10.7989 53.4732 10.1066 55.5923 9.9ZM55.4539 20.1462C57.2078 20.1462 58.9615 20.1462 60.7154 20.1462C61.0681 22.0486 60.3758 23.4101 58.6385 24.2308C57.0887 24.9204 55.5656 24.8742 54.0692 24.0923C53.168 23.2322 53.0066 22.2398 53.5846 21.1154C54.1047 20.5669 54.7278 20.2439 55.4539 20.1462Z" fill="black"/>
<path opacity="0.968" fill-rule="evenodd" clip-rule="evenodd" d="M77.6077 9.9C78.0231 9.9 78.4385 9.9 78.8538 9.9C78.8538 11.2385 78.8538 12.5769 78.8538 13.9154C76.9547 13.5995 75.3163 14.1072 73.9385 15.4385C73.4256 16.192 73.1026 17.0227 72.9692 17.9308C72.9 21.1151 72.8769 24.2997 72.9 27.4846C71.5154 27.4846 70.1308 27.4846 68.7462 27.4846C68.7462 21.7153 68.7462 15.9462 68.7462 10.1769C70.0847 10.1769 71.423 10.1769 72.7615 10.1769C72.7386 10.8708 72.7617 11.5631 72.8308 12.2538C74.1259 10.8464 75.7182 10.0618 77.6077 9.9Z" fill="black"/>
<path opacity="0.969" fill-rule="evenodd" clip-rule="evenodd" d="M86.1923 9.9C88.8156 9.60977 91.2155 10.1867 93.3923 11.6308C94.5642 12.7894 95.2334 14.1972 95.4 15.8538C95.4692 19.7305 95.4923 23.6074 95.4692 27.4846C94.177 27.4846 92.8846 27.4846 91.5923 27.4846C91.6153 26.8829 91.5922 26.2829 91.5231 25.6846C90.5184 26.8448 89.2491 27.514 87.7154 27.6923C85.6621 28.0192 83.7237 27.6962 81.9 26.7231C79.5756 24.8784 79.0449 22.5937 80.3077 19.8692C81.4319 18.3952 82.9318 17.5874 84.8077 17.4462C86.9764 17.3769 89.1457 17.3538 91.3154 17.3769C91.417 15.5701 90.6325 14.3471 88.9615 13.7077C86.3843 13.1385 84.0305 13.6231 81.9 15.1615C81.1418 14.1988 80.6109 13.1373 80.3077 11.9769C82.1116 10.7989 84.0731 10.1066 86.1923 9.9ZM86.0538 20.1462C87.8077 20.1462 89.5615 20.1462 91.3154 20.1462C91.668 22.0486 90.9757 23.4101 89.2385 24.2308C87.6887 24.9204 86.1656 24.8742 84.6692 24.0923C83.768 23.2322 83.6065 22.2398 84.1846 21.1154C84.7047 20.5669 85.3277 20.2439 86.0538 20.1462Z" fill="black"/>
<path opacity="0.959" fill-rule="evenodd" clip-rule="evenodd" d="M-0.0692139 12.3923C6.39233 12.3923 12.8539 12.3923 19.3154 12.3923C19.4785 17.7706 16.94 21.0244 11.7 22.1538C8.60806 22.2231 5.51574 22.2462 2.42309 22.2231C2.42309 25.0384 2.42309 27.8539 2.42309 30.6692C4.67931 30.7068 6.41008 29.7838 7.6154 27.9C7.93651 27.086 8.02882 26.2552 7.89232 25.4077C8.28025 25.2928 8.67256 25.1774 9.06925 25.0615C9.32542 24.7821 9.60234 24.5283 9.90002 24.3C10.9217 27.3056 10.1371 29.7749 7.54617 31.7077C6.40289 32.4406 5.15674 32.9022 3.80771 33.0923C2.51622 33.1615 1.22392 33.1845 -0.0692139 33.1615C-0.0692139 26.2385 -0.0692139 19.3154 -0.0692139 12.3923ZM2.42309 14.7462C7.17694 14.7462 11.9308 14.7462 16.6846 14.7462C15.9966 17.4417 14.289 19.0801 11.5616 19.6615C8.51575 19.7308 5.46959 19.7539 2.42309 19.7308C2.42309 18.0692 2.42309 16.4077 2.42309 14.7462Z" fill="black"/>
</g>
<defs>
<clipPath id="clip0_5115_851">
<rect width="136.246" height="36" fill="white"/>
</clipPath>
</defs>
</svg>
