<svg width="40" height="46" viewBox="0 0 40 46" fill="none" xmlns="http://www.w3.org/2000/svg">
<path d="M22.8571 1.65033C21.0891 0.629576 18.9108 0.629576 17.1428 1.65033L3.06222 9.77972C1.29422 10.8005 0.205078 12.687 0.205078 14.7285V30.9873C0.205078 33.0289 1.29422 34.9153 3.06222 35.9361L17.1428 44.0654C18.9108 45.0862 21.0891 45.0862 22.8571 44.0654L36.9377 35.9361C38.7057 34.9153 39.7948 33.0289 39.7948 30.9873V14.7285C39.7948 12.687 38.7057 10.8005 36.9377 9.77972L22.8571 1.65033Z" fill="#121212"/>
<path opacity="0.5" d="M18.8898 11.7461H21.112C23.2075 11.7461 24.2542 11.7461 24.9053 12.3972C25.5565 13.0483 25.5565 14.095 25.5565 16.1906V20.635H14.4453V16.1906C14.4453 14.095 14.4453 13.0483 15.0965 12.3972C15.7475 11.7461 16.7942 11.7461 18.8898 11.7461Z" fill="white"/>
<path fill-rule="evenodd" clip-rule="evenodd" d="M20.0002 33.9673C17.6428 33.9673 15.3818 33.0307 13.7149 31.3637C12.0478 29.6968 11.1113 27.4358 11.1113 25.0783C11.1113 22.7209 12.0478 20.4599 13.7149 18.793C15.3818 17.1259 17.6428 16.1895 20.0002 16.1895C22.3577 16.1895 24.6186 17.1259 26.2856 18.793C27.9526 20.4599 28.8891 22.7209 28.8891 25.0783C28.8891 27.4358 27.9526 29.6968 26.2856 31.3637C24.6186 33.0307 22.3577 33.9673 20.0002 33.9673ZM20.0002 21.745C20.3158 21.745 20.5269 22.1228 20.9491 22.8816L21.058 23.0773C21.178 23.2928 21.238 23.3995 21.3313 23.4706C21.4258 23.5416 21.5425 23.5683 21.7758 23.6206L21.9869 23.6695C22.8069 23.855 23.2169 23.9473 23.3147 24.2606C23.4125 24.575 23.1325 24.9016 22.5735 25.555L22.4291 25.7239C22.2702 25.9095 22.1902 26.0016 22.1547 26.1173C22.1191 26.2328 22.1313 26.3561 22.1547 26.6039L22.1769 26.8295C22.2613 27.7016 22.3035 28.1383 22.0491 28.3316C21.7935 28.525 21.4091 28.3483 20.6413 27.995L20.4435 27.9039C20.2247 27.8039 20.1158 27.7528 20.0002 27.7528C19.8847 27.7528 19.7758 27.8039 19.5569 27.9039L19.3591 27.995C18.5913 28.3495 18.2069 28.525 17.9513 28.3316C17.6958 28.1383 17.7391 27.7016 17.8235 26.8295L17.8458 26.6039C17.8691 26.3561 17.8813 26.2328 17.8458 26.1173C17.8102 26.0028 17.7302 25.9095 17.5713 25.7239L17.4269 25.555C16.868 24.9016 16.588 24.575 16.6858 24.2606C16.7835 23.9473 17.1935 23.855 18.0135 23.6695L18.2247 23.6206C18.458 23.5683 18.5747 23.5428 18.6691 23.4706C18.7625 23.3995 18.8225 23.2928 18.9425 23.0773L19.0513 22.8816C19.4735 22.1228 19.6847 21.745 20.0002 21.745Z" fill="white"/>
</svg>
