<svg width="29" height="29" viewBox="0 0 29 29" fill="none" xmlns="http://www.w3.org/2000/svg">
<path fill-rule="evenodd" clip-rule="evenodd" d="M13.8137 0.0138335C14.2385 -0.0407832 14.6133 0.0663299 14.9382 0.335109C15.5807 2.36984 15.5807 4.4046 14.9382 6.43934C14.3875 6.89731 13.9591 6.79023 13.6531 6.11806C13.3992 4.05718 13.4528 2.02245 13.8137 0.0138335Z" fill="#793A87"/>
<path fill-rule="evenodd" clip-rule="evenodd" d="M9.31439 9.97359C10.1144 11.1424 10.9176 12.3203 11.724 13.5076C12.1053 14.0038 12.2125 14.5393 12.0452 15.114C9.74143 15.8901 7.43895 16.6397 5.13782 17.3629C3.80395 17.3209 3.58975 16.839 4.49527 15.9172C6.25807 15.3022 7.97153 14.6061 9.63567 13.8289C8.44907 12.4198 7.69941 10.8135 7.38674 9.00977C8.17284 9.04671 8.81539 9.36799 9.31439 9.97359Z" fill="#583578"/>
<path fill-rule="evenodd" clip-rule="evenodd" d="M17.0265 10.6161C16.3229 11.6404 15.5732 12.6577 14.7776 13.6682C14.4563 13.8824 14.135 13.8824 13.8138 13.6682C12.5527 11.8241 11.3747 9.94997 10.2797 8.04593C9.81195 7.16348 9.3836 6.25322 8.99463 5.31509C9.04819 4.83318 9.3159 4.56546 9.79782 4.51191C11.5293 6.36534 13.0286 8.40007 14.2957 10.6161C15.545 8.4925 16.9908 6.51133 18.6329 4.67254C18.9375 4.51743 19.2587 4.46387 19.5967 4.51191C19.0051 6.65889 18.1483 8.69365 17.0265 10.6161Z" fill="#783786"/>
<path fill-rule="evenodd" clip-rule="evenodd" d="M23.4506 17.3626C21.2502 16.6775 19.0013 16.0349 16.7038 15.435C16.5653 15.18 16.4582 14.9123 16.3826 14.6318C16.8342 13.9963 17.1554 13.3002 17.3464 12.5435C18.3425 11.4719 19.3063 10.3474 20.2379 9.1701C20.5424 9.01499 20.8637 8.96143 21.2017 9.00946C20.889 10.8132 20.1394 12.4195 18.9528 13.8286C20.6646 14.5773 22.3782 15.327 24.0932 16.0775C24.3916 16.4594 24.4986 16.8878 24.4144 17.3626C24.0932 17.3626 23.7719 17.3626 23.4506 17.3626Z" fill="#605A9A"/>
<path fill-rule="evenodd" clip-rule="evenodd" d="M8.99489 23.7881C8.04632 25.3784 6.97539 26.8778 5.78214 28.2859C5.59387 28.2188 5.43323 28.1114 5.30023 27.9646C5.2121 26.9529 5.42626 25.9891 5.94278 25.0732C6.85304 23.4668 7.76335 21.8604 8.67361 20.254C6.54266 20.3343 4.45437 20.8697 2.40875 21.8604C1.60556 21.5927 1.44492 21.1108 1.92684 20.4147C3.18055 19.7339 4.46565 19.1449 5.78214 18.6476C7.33907 18.0709 8.94545 17.6425 10.6013 17.3625C11.7983 17.4584 12.1732 18.1009 11.7257 19.2902C10.8926 20.8519 9.98226 22.3512 8.99489 23.7881Z" fill="#2E356C"/>
<path fill-rule="evenodd" clip-rule="evenodd" d="M23.1298 18.6476C24.2784 19.2219 25.4562 19.8109 26.6638 20.4147C27.1458 21.1108 26.9851 21.5927 26.1819 21.8604C24.2427 21.0777 22.2617 20.4352 20.2383 19.9327C20.1313 20.0398 20.0242 20.1469 19.9171 20.254C21.6263 22.5999 22.804 25.1702 23.4511 27.9646C22.6232 27.9791 21.9806 27.6578 21.5234 27.0008C19.9242 24.4839 18.3714 21.9137 16.865 19.2902C16.7058 18.6564 16.6522 18.0139 16.7043 17.3625C18.9239 17.4209 21.0658 17.8493 23.1298 18.6476Z" fill="#2372AF"/>
<path fill-rule="evenodd" clip-rule="evenodd" d="M3.85362 22.8245C4.28197 22.8245 4.71036 22.8245 5.13872 22.8245C5.18906 23.2657 5.1355 23.6941 4.97808 24.1096C3.5689 25.6803 2.01605 27.0724 0.319589 28.2861C-0.0437407 27.7805 -0.0972652 27.2449 0.158952 26.6798C1.23956 25.2247 2.47114 23.9398 3.85362 22.8245Z" fill="#2F366C"/>
<path fill-rule="evenodd" clip-rule="evenodd" d="M18.955 27.3224C18.7126 27.954 18.3378 28.0613 17.8306 27.6437C16.6526 25.716 15.4746 23.7884 14.2966 21.8607C13.1133 24.0174 11.7747 26.0521 10.2806 27.9649C9.9704 27.3558 9.86331 26.7133 9.95934 26.0373C10.8549 24.2462 11.7651 22.4257 12.6902 20.5756C13.0315 19.7518 13.6205 19.2163 14.4572 18.9692C16.4491 21.4515 17.9483 24.2359 18.955 27.3224Z" fill="#324E8A"/>
<path fill-rule="evenodd" clip-rule="evenodd" d="M23.7719 22.8245C26.0375 23.7506 27.7509 25.3034 28.9123 27.483C28.5852 28.4452 28.05 28.5522 27.3059 27.8042C26.0658 26.5641 24.834 25.3323 23.6112 24.1096C23.4252 23.6506 23.4789 23.2223 23.7719 22.8245Z" fill="#2572AF"/>
</svg>
