<svg width="23" height="30" viewBox="0 0 23 30" fill="none" xmlns="http://www.w3.org/2000/svg">
<path d="M1.09784 19.8957H21.8321C22.2491 19.8957 22.6297 20.044 22.9293 20.2846V1.15877C22.9293 0.517258 22.4029 0 21.7552 0H1.17882C0.531024 0 0.00463867 0.517258 0.00463867 1.15877V20.2846C0.300198 20.04 0.680802 19.8957 1.09784 19.8957Z" fill="#005B47"/>
<path d="M19.7114 2.4295C19.7114 2.24107 19.5535 2.09268 19.351 2.09268C19.1486 2.09268 18.9907 2.24101 18.9907 2.4295C18.9907 2.62194 19.1445 2.76631 19.351 2.76631C19.5576 2.77033 19.7114 2.62201 19.7114 2.4295ZM18.1769 5.24424H20.594V4.44636C20.594 4.22984 20.5535 4.08547 20.4564 3.9692C20.3511 3.84488 20.1851 3.78078 19.9583 3.78078H18.1769V5.24424ZM13.5207 6.88419C13.4033 6.88419 13.2899 6.86817 13.1725 6.83605L13.1037 6.82002L13.2454 6.30277L13.3102 6.31879C13.4033 6.34286 13.4357 6.34689 13.5005 6.34689C13.7393 6.34689 13.8163 6.26669 13.8163 5.8016V2.93073H14.3628V5.24424H17.6262V2.9267H18.1728V3.24347H19.9543C20.3713 3.24347 20.6426 3.35176 20.8693 3.60831C21.0393 3.80076 21.1366 4.09748 21.1366 4.45032V5.78551H14.3062V5.8136C14.3264 6.22257 14.2495 6.51526 14.0794 6.69168C13.8972 6.88419 13.6421 6.88419 13.5207 6.88419ZM12.6299 6.4993C12.6299 6.31088 12.4761 6.16651 12.2777 6.16651C12.0833 6.16651 11.9295 6.31483 11.9295 6.4993C11.9295 6.68772 12.0793 6.82807 12.2777 6.82807C12.4801 6.82807 12.6299 6.68772 12.6299 6.4993ZM11.642 6.4993C11.642 6.31088 11.4881 6.16651 11.2938 6.16651C11.0995 6.16651 10.9456 6.31483 10.9456 6.4993C10.9456 6.68772 11.0954 6.82807 11.2938 6.82807C11.4922 6.82807 11.642 6.68772 11.642 6.4993ZM8.58104 6.48723C8.58104 6.29881 8.42314 6.15444 8.22068 6.15444C8.01823 6.15444 7.86032 6.30276 7.86032 6.48723C7.86032 6.67968 8.01416 6.82405 8.22068 6.82405C8.4272 6.82405 8.58104 6.6837 8.58104 6.48723ZM3.34588 1.97647C3.34588 1.79201 3.19204 1.64771 2.99771 1.64771C2.80338 1.64771 2.64954 1.79207 2.64954 1.97647C2.64954 2.1649 2.79932 2.30927 2.99771 2.30927C3.19611 2.30927 3.34588 2.1649 3.34588 1.97647ZM4.32973 1.97647C4.32973 1.79201 4.17589 1.64771 3.97749 1.64771C3.78316 1.64771 3.62932 1.79207 3.62932 1.97647C3.62932 2.1649 3.7791 2.30927 3.97749 2.30927C4.17995 2.30927 4.32973 2.1649 4.32973 1.97647ZM3.38231 3.46401C2.8843 3.46401 2.34985 3.80485 2.34985 4.35818C2.34985 4.97166 2.86811 5.24431 3.38231 5.24431H3.7143V3.46401H3.38231ZM3.45517 5.78155C2.23644 5.78155 1.80322 5.01572 1.80322 4.35812C1.80322 3.51611 2.51988 2.9267 3.54827 2.9267H3.7143V2.67813H4.26087V5.24431H7.94936V2.9267H8.49193V5.24424H11.9294V2.9267H12.4639V5.78155H3.45517Z" fill="white"/>
<path d="M21.135 7.59009H20.5885V11.7841H21.135V7.59009ZM3.70063 9.47063V11.2509H3.36864C2.85444 11.2509 2.33618 10.9782 2.33618 10.3647C2.33618 9.81543 2.87063 9.47057 3.36864 9.47057L3.70063 9.47063ZM16.4181 9.47063V11.2509H15.6164L15.6083 11.2468C15.252 11.0384 15.0455 10.7176 15.0455 10.3567C15.0455 9.77928 15.5556 9.47057 16.0375 9.47057L16.4181 9.47063ZM8.8913 10.7216C8.8913 11.279 8.45808 11.6999 7.88315 11.6999C7.34058 11.6999 6.91142 11.2709 6.91142 10.7216C6.91142 10.1683 7.33658 9.73523 7.88315 9.73523C8.46614 9.73523 8.8913 10.1522 8.8913 10.7216ZM8.99652 11.7961L9.00465 11.7881H19.5681V7.59009H19.0216V11.2468H16.9607V8.93332H16.2076C15.1711 8.93332 14.5031 9.49068 14.5031 10.3568C14.5031 10.6816 14.6083 10.9662 14.8148 11.2028L14.8553 11.2469H12.264V8.93339H11.7174V11.2509H9.34076L9.35288 11.2148C9.4055 11.0624 9.43387 10.898 9.43387 10.7296C9.43387 9.85955 8.76583 9.19799 7.88315 9.19799C7.0329 9.19799 6.36885 9.87162 6.36885 10.7296C6.36885 10.8941 6.39722 11.0584 6.44577 11.2148L6.4579 11.2509H4.2472V8.68469H3.70063V8.93326H3.5346C2.50621 8.93326 1.78955 9.52267 1.78955 10.3647C1.78955 11.0543 2.24708 11.7881 3.5346 11.7881H6.78988L6.79801 11.7961C7.08551 12.0848 7.47011 12.2452 7.87908 12.2452C8.30418 12.2413 8.71308 12.0809 8.99652 11.7961ZM16.823 8.17547C16.823 7.99101 16.6691 7.84671 16.4707 7.84671C16.2764 7.84671 16.1226 7.99107 16.1226 8.17547C16.1226 8.3639 16.2724 8.50827 16.4707 8.50827C16.6691 8.50833 16.823 8.36396 16.823 8.17547ZM15.8391 8.17547C15.8391 7.99101 15.6853 7.84671 15.491 7.84671C15.2966 7.84671 15.1428 7.99107 15.1428 8.17547C15.1428 8.3639 15.2926 8.50827 15.491 8.50827C15.6893 8.50833 15.8391 8.36396 15.8391 8.17547ZM12.7984 12.5059C12.7984 12.3174 12.6446 12.1731 12.4462 12.1731C12.2519 12.1731 12.098 12.3214 12.098 12.5059C12.098 12.6943 12.2478 12.8346 12.4462 12.8346C12.6486 12.8347 12.7984 12.6943 12.7984 12.5059ZM11.8105 12.5059C11.8105 12.3174 11.6567 12.1731 11.4624 12.1731C11.268 12.1731 11.1142 12.3214 11.1142 12.5059C11.1142 12.6943 11.264 12.8346 11.4624 12.8346C11.6607 12.8347 11.8105 12.6903 11.8105 12.5059ZM3.33215 7.979C3.33215 7.79454 3.17831 7.65024 2.98398 7.65024C2.78964 7.65024 2.6358 7.7946 2.6358 7.979C2.6358 8.16743 2.78558 8.3118 2.98398 8.3118C3.18237 8.31186 3.33215 8.17152 3.33215 7.979ZM3.96382 8.31186C3.76543 8.31186 3.61565 8.16749 3.61565 7.97907C3.61565 7.7946 3.76949 7.6503 3.96382 7.6503C4.16222 7.6503 4.31606 7.79467 4.31606 7.97907C4.31606 8.17152 4.16621 8.31186 3.96382 8.31186Z" fill="white"/>
<path d="M21.1365 13.5968H20.59V17.7909H21.1365V13.5968ZM10.82 15.79H12.5408C12.7676 15.79 12.9376 15.8542 13.0388 15.9784C13.1319 16.0947 13.1765 16.2391 13.1765 16.4556V17.2535H10.816V15.79H10.82V15.79ZM17.2415 16.7283C17.2415 17.2857 16.8083 17.7066 16.2333 17.7066C15.6908 17.7066 15.2616 17.2776 15.2616 16.7283C15.2616 16.175 15.6868 15.7419 16.2333 15.7419C16.8204 15.7419 17.2415 16.1549 17.2415 16.7283ZM17.3509 17.7988L17.359 17.7908H19.5697V13.5967H19.0231V17.2535H17.6951L17.7072 17.2174C17.7598 17.0651 17.7882 16.9006 17.7882 16.7323C17.7882 15.8622 17.1202 15.2006 16.2375 15.2006C15.3872 15.2006 14.7232 15.8742 14.7232 16.7323C14.7232 16.8967 14.7475 17.061 14.8001 17.2174L14.8122 17.2535H13.7231V16.4556C13.7231 16.1028 13.63 15.806 13.4558 15.6136C13.2291 15.357 12.9578 15.2487 12.5408 15.2487H10.82V14.932H10.2735V17.2495H8.96164V13.5928H8.41508V17.7868H15.1443L15.1524 17.7949C15.4399 18.0835 15.8245 18.2439 16.2335 18.2439C16.6585 18.248 17.0634 18.0835 17.3509 17.7988ZM12.2978 14.4388C12.2978 14.2504 12.1399 14.102 11.9375 14.102C11.735 14.102 11.5771 14.2503 11.5771 14.4388C11.5771 14.6312 11.731 14.7756 11.9375 14.7756C12.144 14.7796 12.2978 14.6353 12.2978 14.4388ZM6.9574 14.1742C6.9574 13.9858 6.79949 13.8374 6.59704 13.8374C6.39458 13.8374 6.23668 13.9857 6.23668 14.1742C6.23668 14.3666 6.39052 14.511 6.59704 14.511C6.80356 14.515 6.9574 14.3666 6.9574 14.1742ZM3.71424 15.4733V17.2536H3.38225C2.86805 17.2536 2.34979 16.981 2.34979 16.3675C2.34979 15.8182 2.88423 15.4733 3.38225 15.4733H3.71424ZM7.04644 15.4733V17.2536H6.24474L6.23661 17.2496C5.88032 17.0411 5.6738 16.7203 5.6738 16.3594C5.6738 15.9304 6.02197 15.4733 6.66577 15.4733H7.04644ZM7.59307 17.7909V14.936H6.83998C5.80346 14.936 5.13542 15.4934 5.13542 16.3594C5.13542 16.6842 5.24071 16.9689 5.44717 17.2055L5.48766 17.2496H4.26493V14.6834H3.7143V14.932H3.54827C2.51988 14.932 1.80322 15.5214 1.80322 16.3634C1.80322 17.0531 2.26075 17.7868 3.54827 17.7868H7.59307V17.7909ZM3.34582 13.9857C3.34582 13.8012 3.19198 13.6569 2.99765 13.6569C2.80332 13.6569 2.64948 13.8013 2.64948 13.9857C2.64948 14.1741 2.79925 14.3185 2.99765 14.3185C3.19604 14.3185 3.34582 14.1742 3.34582 13.9857ZM3.97743 14.3185C3.77903 14.3185 3.62926 14.1741 3.62926 13.9857C3.62926 13.8012 3.7831 13.6569 3.97743 13.6569C4.17582 13.6569 4.32966 13.8013 4.32966 13.9857C4.32966 14.1742 4.17988 14.3185 3.97743 14.3185Z" fill="white"/>
<path d="M21.7546 29.1981H1.17418C0.526385 29.1981 0 28.6768 0 28.0353V21.664C0 21.0225 0.526385 20.5012 1.17418 20.5012H21.7546C22.4024 20.5012 22.9288 21.0225 22.9288 21.664V28.0353C22.9288 28.6768 22.4024 29.1981 21.7546 29.1981Z" fill="#D4A007"/>
<path d="M5.03606 26.4671L6.42481 21.8359H8.36826C7.72446 23.7565 6.33977 27.8704 6.32359 27.8704H3.74853C3.73235 27.8704 2.34765 23.7565 1.70386 21.8359H3.6473L5.03606 26.4671Z" fill="white"/>
<path d="M21.2259 21.8359H14.78L15.2659 23.2193H17.3227V27.8664H19.1731V23.2193H21.2259V21.8359Z" fill="white"/>
<path d="M14.6855 24.0461L14.4871 23.6211C13.4749 24.2787 11.7986 26.2514 11.7986 26.2514L11.1832 25.5657L10.9605 26.3115L10.9321 26.4198C11.167 26.7526 11.8067 27.8673 11.8067 27.8673C13.2927 25.2008 14.6855 24.0461 14.6855 24.0461Z" fill="#005B47"/>
<path d="M11.5757 23.2353L12.2073 25.3523C12.592 24.9313 13.1021 24.3981 13.588 23.961C13.1872 22.7742 12.8673 21.8359 12.8592 21.8359H10.2842C10.268 21.8359 8.8833 25.9498 8.2395 27.8704H10.1829L11.5757 23.2353Z" fill="white"/>
<path d="M12.6953 26.9604L12.9666 27.8666H14.91C14.6711 27.1609 14.3351 26.1585 14.0031 25.1721C13.6387 25.6052 13.1812 26.1985 12.6953 26.9604Z" fill="white"/>
</svg>
